<?xml version="1.0" standalone="no"?>
<!DOCTYPE svg PUBLIC "-//W3C//DTD SVG 20010904//EN"
 "http://www.w3.org/TR/2001/REC-SVG-20010904/DTD/svg10.dtd">
<svg version="1.0" xmlns="http://www.w3.org/2000/svg"
 width="2000.000000pt" height="2000.000000pt" viewBox="0 0 2000.000000 2000.000000"
 preserveAspectRatio="xMidYMid meet">

<g transform="translate(0.000000,2000.000000) scale(0.100000,-0.100000)"
fill="#000000" stroke="none">
<path d="M11442 19982 c-94 -34 -163 -123 -191 -247 -43 -194 -244 -1307 -248
-1376 -7 -104 8 -174 48 -228 30 -42 94 -85 151 -102 45 -13 1018 -195 1090
-204 70 -8 155 8 200 38 67 44 114 193 89 277 -15 52 -76 102 -154 128 -35 11
-212 49 -393 83 -181 35 -331 64 -333 66 -5 4 46 293 53 300 2 3 116 -17 253
-43 291 -56 413 -63 473 -29 95 55 110 246 25 313 -48 38 -130 61 -403 113
-147 28 -269 53 -271 55 -6 6 49 317 58 326 3 4 161 -22 351 -58 387 -73 463
-78 533 -35 56 34 90 113 91 209 1 92 -16 128 -84 173 -68 45 -135 61 -655
160 -539 101 -604 109 -683 81z"/>
<path d="M7970 19936 c-30 -8 -341 -96 -690 -195 -427 -122 -659 -193 -708
-217 -121 -59 -159 -134 -127 -256 54 -212 169 -244 518 -147 81 23 150 40
152 37 2 -2 76 -250 164 -552 93 -320 174 -578 194 -620 60 -126 127 -183 231
-193 92 -9 238 38 313 101 67 56 96 181 74 311 -7 37 -79 303 -161 589 -81
287 -150 529 -152 540 -3 16 20 25 164 67 234 68 299 102 339 181 51 100 -8
295 -104 344 -42 22 -140 27 -207 10z"/>
<path d="M15646 18119 c-89 -12 -234 -61 -313 -105 -252 -140 -476 -432 -555
-722 -31 -115 -31 -336 0 -447 53 -186 174 -380 325 -520 217 -203 459 -305
721 -305 248 0 458 74 537 189 30 44 32 122 4 170 -36 62 -79 75 -265 82 -184
7 -261 22 -354 72 -245 130 -325 402 -196 664 116 235 396 420 564 373 104
-29 173 -132 147 -220 -14 -46 -41 -70 -135 -115 -101 -47 -150 -86 -175 -137
-101 -209 167 -471 436 -428 266 43 453 249 453 500 0 309 -263 665 -625 845
-181 90 -390 129 -569 104z"/>
<path d="M3599 17780 c-100 -25 -172 -58 -272 -123 -94 -62 -117 -82 -439
-379 -200 -185 -241 -227 -265 -275 -51 -106 -42 -218 26 -316 45 -66 890
-983 969 -1051 89 -77 150 -106 227 -106 159 0 335 174 335 331 0 118 -55 214
-234 409 l-115 125 72 73 c89 90 177 138 234 127 74 -14 150 -63 261 -169 60
-57 129 -114 153 -127 102 -53 231 -14 352 105 83 82 122 158 113 224 -14 107
-154 312 -274 401 -131 99 -328 118 -461 45 -24 -13 -45 -24 -47 -24 -2 0 5
15 16 33 70 120 79 274 22 389 -66 134 -189 250 -317 298 -85 32 -251 37 -356
10z m9 -506 c84 -42 142 -131 142 -217 0 -65 -49 -154 -137 -247 -41 -44 -79
-80 -83 -80 -4 0 -83 81 -175 181 l-168 180 29 30 c49 52 162 130 222 155 73
30 106 30 170 -2z"/>
<path d="M9703 14699 c-1433 -87 -2751 -829 -3579 -2017 -340 -487 -609 -1105
-728 -1671 -74 -348 -97 -556 -103 -926 -7 -402 13 -650 83 -1006 242 -1239
977 -2329 2039 -3021 1384 -903 3162 -1015 4650 -293 703 342 1319 864 1779
1508 439 615 731 1358 830 2117 30 229 39 420 33 715 -7 396 -42 667 -132
1033 -82 329 -178 594 -331 910 -602 1245 -1715 2157 -3064 2511 -455 120
-984 170 -1477 140z m742 -803 c454 -56 857 -174 1260 -371 1042 -509 1810
-1459 2085 -2580 83 -339 105 -530 105 -915 0 -341 -11 -461 -70 -755 -171
-860 -625 -1637 -1290 -2214 -601 -520 -1323 -835 -2130 -927 -200 -23 -614
-23 -810 0 -468 54 -872 169 -1272 361 -642 308 -1198 794 -1586 1386 -333
508 -529 1043 -614 1669 -23 169 -26 722 -5 890 60 486 182 896 387 1308 343
687 854 1235 1527 1637 113 68 376 198 513 253 326 132 717 228 1060 262 61 5
128 12 150 14 94 9 568 -3 690 -18z"/>
<path d="M7650 12023 l0 -337 61 59 c33 33 182 185 331 338 l270 277 -331 0
-331 0 0 -337z"/>
<path d="M11745 12350 c-255 -36 -521 -167 -666 -329 -212 -237 -195 -505 50
-787 171 -199 373 -293 565 -266 191 28 359 159 451 354 28 59 38 95 45 167
12 111 16 131 46 198 60 137 228 326 407 460 l59 43 -29 11 c-115 45 -163 61
-273 88 -220 54 -513 81 -655 61z m160 -229 c-368 -182 -572 -344 -661 -526
-24 -50 -44 -96 -44 -103 0 -27 -19 -9 -41 41 -19 42 -24 69 -24 142 0 120 27
177 130 273 158 148 413 234 710 240 l70 2 -140 -69z"/>
<path d="M8650 11937 l0 -82 1463 -1463 1463 -1463 30 38 c17 21 62 86 101
144 l71 105 -1395 1402 -1395 1402 -169 0 -169 0 0 -83z"/>
<path d="M8544 11619 l-121 -39 -38 -125 -39 -126 1411 -1411 1411 -1411 100
81 c108 88 184 168 210 220 l16 33 -1409 1409 c-776 776 -1412 1410 -1415
1409 -3 0 -59 -18 -126 -40z"/>
<path d="M7967 11353 c-4 -3 -7 -79 -7 -167 l0 -161 1398 -1398 1399 -1399 54
27 c67 34 188 117 219 151 l24 25 -1464 1464 -1465 1465 -76 0 c-42 0 -79 -3
-82 -7z"/>
<path d="M10496 11089 l-159 -81 334 -334 c184 -184 336 -334 339 -334 3 0 43
75 88 167 l84 166 -249 249 c-136 136 -255 248 -263 247 -8 0 -87 -36 -174
-80z"/>
<path d="M8403 8567 l-753 -922 85 -85 85 -85 838 838 837 837 -170 169 -170
170 -752 -922z"/>
<path d="M11842 9040 c-90 -145 -258 -357 -387 -486 -150 -151 -245 -228 -437
-357 l-137 -92 56 -57 56 -57 56 36 c219 139 446 323 578 471 95 105 202 246
302 396 l73 108 -53 54 c-29 30 -56 54 -59 54 -3 0 -24 -31 -48 -70z"/>
<path d="M12031 8789 c-231 -347 -460 -578 -800 -807 -69 -47 -128 -86 -131
-89 -2 -2 86 -94 195 -204 l200 -201 62 6 c76 6 192 44 298 98 330 166 606
530 650 858 l6 45 -203 203 -203 202 -74 -111z"/>
<path d="M18835 14673 c-51 -15 -1098 -498 -1258 -580 -232 -119 -286 -252
-185 -461 57 -120 156 -192 263 -192 64 0 192 42 367 121 100 44 184 77 189
72 8 -8 237 -504 242 -523 1 -5 -79 -48 -178 -95 -227 -108 -276 -137 -335
-203 -83 -90 -89 -196 -20 -338 62 -127 152 -188 275 -186 85 1 167 25 324 97
811 370 1055 482 1104 506 67 34 132 90 154 133 22 42 21 147 -2 216 -71 215
-193 307 -369 279 -41 -7 -138 -45 -300 -120 -132 -60 -244 -105 -248 -101 -8
8 -235 500 -240 521 -2 6 98 57 222 114 287 132 303 140 352 185 74 67 92 134
63 247 -63 247 -227 367 -420 308z"/>
<path d="M1040 14073 c-179 -30 -363 -127 -492 -259 -82 -84 -104 -117 -158
-229 -71 -148 -84 -211 -85 -395 0 -135 3 -165 23 -230 85 -268 283 -491 559
-629 146 -73 451 -181 666 -236 268 -68 385 -41 457 109 63 134 76 277 30 352
-38 60 -103 98 -282 163 l-26 10 83 221 c46 122 86 224 89 227 3 3 43 -8 88
-25 147 -55 220 -62 289 -26 85 43 189 241 189 358 -1 143 -161 261 -575 426
-256 101 -371 137 -522 159 -69 11 -280 13 -333 4z m273 -668 c114 -42 207
-80 207 -83 0 -11 -162 -437 -168 -444 -7 -6 -359 124 -417 155 -142 74 -184
169 -134 302 24 65 70 122 114 142 20 9 55 12 110 10 70 -4 106 -14 288 -82z"/>
<path d="M818 10469 c-310 -41 -563 -262 -650 -566 -18 -62 -22 -103 -22 -203
0 -150 15 -215 82 -350 39 -80 61 -110 137 -186 102 -103 189 -159 310 -200
114 -39 304 -46 426 -15 365 91 606 417 586 791 -10 175 -58 305 -162 439 -74
94 -160 162 -270 216 -141 68 -292 94 -437 74z"/>
<path d="M18987 10470 c-306 -38 -570 -267 -653 -570 -26 -91 -25 -310 0 -400
75 -271 293 -483 565 -551 70 -18 105 -21 215 -17 114 4 142 8 219 35 126 44
190 86 297 193 82 81 103 109 142 190 67 136 82 200 82 350 0 143 -15 210 -73
335 -99 211 -295 368 -525 420 -85 19 -189 25 -269 15z"/>
<path d="M17525 7381 c-58 -26 -127 -106 -171 -197 -32 -66 -39 -92 -42 -159
-5 -98 16 -151 87 -221 47 -47 121 -86 418 -219 73 -33 133 -64 133 -68 0 -11
-230 -519 -241 -531 -4 -5 -112 40 -241 99 -128 59 -259 116 -291 126 -70 23
-157 25 -195 5 -76 -39 -167 -177 -198 -298 -37 -145 28 -278 173 -351 111
-57 1233 -557 1288 -575 197 -64 310 -20 397 155 38 75 43 97 47 165 3 69 0
85 -24 133 -45 94 -125 149 -383 266 -86 39 -160 74 -164 78 -10 8 239 547
251 544 5 -2 81 -35 168 -74 251 -113 342 -139 436 -125 169 26 306 302 231
466 -26 56 -93 123 -172 170 -90 54 -1280 597 -1348 615 -75 19 -110 19 -159
-4z"/>
<path d="M1810 7384 c-153 -23 -277 -59 -485 -141 -164 -64 -425 -188 -487
-231 -102 -71 -147 -140 -148 -224 0 -88 68 -244 136 -312 76 -76 158 -84 309
-30 55 20 106 36 113 37 16 2 187 -443 175 -453 -5 -4 -43 -20 -86 -35 -231
-83 -287 -189 -215 -408 29 -90 52 -129 97 -170 98 -89 257 -76 641 53 340
114 471 175 636 298 410 304 502 821 221 1237 -62 91 -191 214 -277 262 -85
48 -199 88 -308 109 -66 13 -258 17 -322 8z m451 -604 c77 -40 135 -156 127
-255 -9 -108 -80 -162 -345 -264 -100 -39 -192 -73 -206 -76 -23 -6 -27 1
-106 212 -45 120 -81 223 -81 229 0 11 378 157 430 167 67 12 142 6 181 -13z"/>
<path d="M4143 4301 c-23 -11 -56 -30 -74 -43 -34 -25 -896 -956 -970 -1049
-136 -168 -139 -300 -11 -440 29 -32 78 -70 114 -90 55 -29 72 -34 133 -34
130 0 223 60 409 264 l119 131 36 -29 c74 -59 149 -138 171 -181 45 -89 4
-201 -136 -370 -101 -122 -123 -165 -124 -238 0 -79 38 -148 130 -236 132
-126 213 -147 336 -86 76 37 244 191 294 271 88 136 94 332 16 461 l-32 54 84
-29 c173 -59 319 -20 465 127 40 40 86 98 104 132 125 235 56 545 -177 797
-41 44 -190 186 -329 315 -293 270 -327 292 -446 292 -47 0 -84 -7 -112 -19z
m444 -633 c38 -40 87 -100 109 -132 36 -55 39 -64 39 -130 0 -66 -3 -75 -36
-121 -43 -60 -113 -106 -171 -112 -76 -8 -199 52 -318 155 l-44 39 169 186
c94 102 173 186 176 186 3 1 37 -32 76 -71z"/>
<path d="M15279 3855 c-332 -63 -670 -319 -819 -620 -71 -143 -95 -247 -94
-415 0 -160 20 -252 88 -396 180 -380 505 -628 862 -659 279 -25 624 110 858
335 198 190 300 411 313 676 10 205 -30 335 -116 381 -78 41 -156 26 -204 -39
-30 -41 -50 -93 -77 -199 -33 -128 -84 -222 -165 -305 -112 -114 -229 -162
-374 -151 -97 7 -172 35 -263 100 -91 66 -166 157 -223 272 -117 238 -90 444
67 509 50 21 83 20 133 -4 51 -25 68 -58 90 -175 22 -118 40 -159 88 -200 75
-65 176 -71 290 -17 163 76 260 254 241 442 -23 227 -155 391 -364 454 -77 24
-238 29 -331 11z"/>
<path d="M7168 2380 c-82 -25 -138 -114 -146 -234 -10 -157 65 -219 376 -310
85 -24 155 -46 156 -48 2 -2 -64 -241 -145 -532 -82 -290 -155 -561 -164 -602
-38 -185 -1 -298 119 -369 52 -30 183 -65 245 -65 97 0 191 71 250 187 38 76
63 159 221 713 73 256 135 468 139 472 4 5 79 -13 166 -39 251 -72 358 -70
432 9 65 69 93 229 54 306 -24 46 -80 88 -161 120 -59 23 -1200 350 -1335 383
-83 20 -160 23 -207 9z"/>
<path d="M12140 2184 c-14 -3 -254 -48 -535 -100 -540 -100 -593 -115 -653
-177 -17 -18 -41 -54 -54 -82 -40 -90 -34 -143 100 -860 68 -357 131 -679 142
-715 51 -168 145 -250 286 -250 57 0 1052 185 1133 211 175 55 230 158 179
329 -27 90 -89 129 -203 130 -43 0 -193 -23 -395 -60 -179 -33 -335 -60 -346
-60 -20 0 -24 12 -49 145 -15 80 -25 149 -21 152 4 4 118 28 254 54 272 51
338 68 396 101 82 48 105 127 66 230 -36 97 -108 136 -225 123 -33 -3 -175
-28 -315 -54 -142 -27 -258 -45 -261 -40 -13 21 -62 320 -53 328 5 4 79 20
164 35 328 59 547 105 595 126 91 39 128 91 128 181 0 109 -44 198 -116 235
-31 17 -167 27 -217 18z"/>
</g>
</svg>
